<?xml version="1.0" encoding="UTF-8" standalone="no"?><!DOCTYPE svg PUBLIC "-//W3C//DTD SVG 1.1//EN" "http://www.w3.org/Graphics/SVG/1.1/DTD/svg11.dtd"><svg width="100%" height="100%" viewBox="0 0 865 472" version="1.1" xmlns="http://www.w3.org/2000/svg" xmlns:xlink="http://www.w3.org/1999/xlink" xml:space="preserve" xmlns:serif="http://www.serif.com/" style="fill-rule:evenodd;clip-rule:evenodd;stroke-linejoin:round;stroke-miterlimit:2;"><path d="M50.135,10.027c-5.534,-5.534 -14.52,-5.534 -20.054,0l-20.054,20.054c-5.534,5.534 -5.534,14.52 0,20.054l411.651,411.651c5.534,5.534 14.52,5.534 20.054,0l20.054,-20.054c5.534,-5.534 5.534,-14.52 0,-20.054l-411.651,-411.651Z" style="fill:#fff;"/><path d="M854.036,50.135c5.534,-5.534 5.534,-14.52 0,-20.054l-20.054,-20.054c-5.534,-5.534 -14.52,-5.534 -20.054,0l-411.651,411.651c-5.534,5.534 -5.534,14.52 0,20.054l20.054,20.054c5.534,5.534 14.52,5.534 20.054,0l411.651,-411.651Z" style="fill:#fff;"/></svg>