<?xml version="1.0" encoding="UTF-8" standalone="no"?>
<!DOCTYPE svg PUBLIC "-//W3C//DTD SVG 1.1//EN" "http://www.w3.org/Graphics/SVG/1.1/DTD/svg11.dtd">
<svg width="100%" height="100%" viewBox="0 0 679 200" version="1.1" xmlns="http://www.w3.org/2000/svg" xmlns:xlink="http://www.w3.org/1999/xlink" xml:space="preserve" xmlns:serif="http://www.serif.com/" style="fill-rule:evenodd;clip-rule:evenodd;stroke-linejoin:round;stroke-miterlimit:2;">
    <g>
        <path d="M426.7,74.6C431.8,74.6 435.8,76.2 438.6,79.4C441.4,82.6 442.8,87.1 442.8,92.7L442.8,146.6L464.9,146.6L464.9,91.1C464.9,79.9 461.8,70.8 455.7,64.2C449.6,57.6 441.3,54.2 431.1,54.2C419.3,54.2 410.4,58.5 404.5,67L403.8,68L403.2,67C398,58.5 389.9,54.2 379,54.2C367.9,54.2 359.5,58.2 354.2,66.1L352.8,68.2L352.8,56.7L330.7,56.7L330.7,146.7L352.8,146.7L352.8,96C352.8,89.1 354.4,83.8 357.7,80.1C360.9,76.4 365.4,74.5 370.8,74.5C375.9,74.5 379.9,76.1 382.7,79.3C385.5,82.5 386.9,87 386.9,92.6L386.9,146.5L409,146.5L409,96C409,89.1 410.6,83.8 413.7,80.1C416.7,76.5 421.1,74.6 426.7,74.6Z" style="fill:white;fill-rule:nonzero;"/>
        <path d="M502.7,20.8C500,18 496.7,16.6 492.9,16.6C489.2,16.6 486,18 483.3,20.8C480.6,23.6 479.2,26.8 479.2,30.5C479.2,34.2 480.6,37.4 483.3,40.1C486,42.8 489.2,44.2 492.9,44.2C496.7,44.2 500,42.8 502.7,40.1C505.4,37.4 506.8,34.2 506.8,30.5C506.8,26.9 505.4,23.6 502.7,20.8Z" style="fill:white;fill-rule:nonzero;"/>
        <rect x="481.9" y="56.7" width="22.1" height="90" style="fill:white;"/>
        <path d="M631.7,147.3L664.7,56.7L641.1,56.7L620.4,119.7L619.6,117.7L595.9,56.7L550.8,56.7L550.8,55C550.8,44.8 555.9,39.3 566,38.7C566.8,38.5 567.6,38.4 568.5,38.4L575.2,38.4L575.2,17.6L571,17.6C557,16.8 546.3,19.6 539.3,26.2C532.3,32.7 528.7,42.5 528.7,55.1L528.7,56.8L511.2,56.8L511.2,78L528.7,78L528.7,146.8L550.8,146.8L550.8,77.9L580.7,77.9L608.9,144.5L608.8,144.8C606.6,151.1 603.5,155.8 599.7,158.7C596,161.5 591,162.9 584.9,162.9L584.9,183.4C596,183.9 605.5,181.2 613,175.6C620.7,169.6 627,160.2 631.7,147.3Z" style="fill:white;fill-rule:nonzero;"/>
        <path d="M312.2,146.8L312.4,56.8L290.3,56.8L290.3,69L289,67.3C282.1,58.6 272.3,54.2 259.8,54.2C247.8,54.2 237.5,58.8 229,67.9C220.4,77 216.1,88.4 216.1,101.7C216.1,115 220.4,126.4 228.9,135.5C237.4,144.6 247.8,149.3 259.7,149.3C272.3,149.3 282.1,144.9 289,136.3L290.4,134.6L290.4,146.8L312.2,146.8ZM283.1,120.4C278,125.5 271.2,128.3 264.1,128.3C256.8,128.3 250.1,125.5 245,120.4C239.9,115.3 237.1,108.5 237.1,101.3C237.1,86.4 249.2,74.4 264.1,74.4C271.4,74.4 278.1,77.2 283.2,82.3C288.3,87.4 291.1,94.2 291.1,101.4C291,108.5 288.2,115.3 283.1,120.4Z" style="fill:white;fill-rule:nonzero;"/>
        <path d="M184.8,100.5L185,100.1L239.5,26.8L223.4,26.8L172.2,83.3L171.9,82.9L152.9,56.4L128,56.4L171.1,116.7C171.6,117.4 172.6,117.4 173.1,116.7L184.8,100.5Z" style="fill:rgb(0,200,81);fill-rule:nonzero;"/>
        <g>
            <path d="M205.8,149.8L207.7,152.5L208.7,153.8L213.4,160.4C213.6,160.2 213.8,160 214.1,159.8L215.9,158.4C216.3,158.1 216.8,157.8 217.2,157.6L213,151.7L212.2,150.6L210.9,148.8L184.5,111.5C184.4,111.3 184.2,111.2 184,111.2C183.8,111.2 183.6,111.3 183.5,111.5L181.4,114.5C181.2,114.7 181.2,115 181.4,115.3L205.8,149.8Z" style="fill:white;fill-rule:nonzero;"/>
            <path d="M230.4,176.6L227.5,165L224.4,152.8C224.3,152.3 224.1,151.9 223.8,151.5L189.9,103.7C189.8,103.5 189.6,103.4 189.4,103.4C189.2,103.4 189,103.5 188.9,103.7L186.3,107.3L220.9,156.2C221.4,156.1 221.8,156 222.3,155.9L222.5,155.9L222.6,156.1L223.5,159.8L225.1,166.1L225.1,166.3L224.9,166.4C223.3,167.3 221.7,168.5 220.2,170.1L220.1,170.2L219.9,170.1L213,166.7L209.9,165.1L209.7,165L209.8,164.8C210.1,164.4 210.4,163.9 210.7,163.5L178.6,118L175.6,122.2C175.4,122.4 175.4,122.7 175.6,123L205.6,165.4C206,165.9 206.5,166.3 207,166.6L229.1,177.7C229.2,177.8 229.4,177.8 229.5,177.8C229.8,177.8 230.1,177.7 230.2,177.4C230.4,177.1 230.4,176.9 230.4,176.6Z" style="fill:white;fill-rule:nonzero;"/>
        </g>
        <path d="M168.1,123.1L156.3,106.7C156.2,106.5 155.9,106.4 155.7,106.4C155.5,106.4 155.2,106.5 155.1,106.7L138.1,129.7C137.7,141.7 133.9,153.2 127.2,163.1L127.7,163.4L146.1,138.5C145.6,138 145.3,137.3 145.3,136.5C145.3,134.8 146.7,133.5 148.3,133.5C150,133.5 151.3,134.9 151.3,136.5C151.3,138.2 149.9,139.5 148.3,139.5C148,139.5 147.7,139.4 147.4,139.3L129,164.3L129.5,164.6C131,162.5 132.6,160.6 134.2,158.8C136.7,156 139.3,153.6 141.9,151.7C145.8,148.7 150,146.1 154.5,144L168.2,125.6C168.6,124.9 168.6,123.8 168.1,123.1Z" style="fill:white;fill-rule:nonzero;"/>
        <path d="M102.1,123.2C97.5,127.3 91.5,129.4 84.1,129.4C69.8,129.4 60.8,123.4 57.6,111.6L57.3,110.6L126.6,110.6C127.1,107.5 127.4,104.5 127.4,101.7C127.4,88.3 123.1,76.9 114.5,67.8C106,58.8 95,54.2 81.9,54.2C68,54.2 56.5,58.8 47.7,67.8C38.9,76.8 34.4,88.2 34.4,101.8C34.4,115.4 38.9,126.9 47.9,135.8C56.9,144.8 68.9,149.3 83.8,149.3C98.8,149.3 110.7,144.4 119.4,134.7L102.1,123.2ZM57.2,92.9C58.6,86.9 61.4,82.2 65.7,78.8C70,75.5 75.4,73.8 81.9,73.8C87.4,73.8 92.4,75.4 96.7,78.5C101,81.6 103.9,86.5 105.3,92.9L105.5,93.8L56.9,93.8L57.2,92.9Z" style="fill:white;fill-rule:nonzero;"/>
    </g>
</svg>
