<?xml version="1.0" encoding="UTF-8" standalone="no"?>
<!DOCTYPE svg PUBLIC "-//W3C//DTD SVG 1.1//EN" "http://www.w3.org/Graphics/SVG/1.1/DTD/svg11.dtd">
<svg width="100%" height="100%" viewBox="0 0 113 151" version="1.1" xmlns="http://www.w3.org/2000/svg" xmlns:xlink="http://www.w3.org/1999/xlink" xml:space="preserve" xmlns:serif="http://www.serif.com/" style="fill-rule:evenodd;clip-rule:evenodd;stroke-linejoin:round;stroke-miterlimit:2;">
    <g transform="matrix(1,0,0,1,-127.2,-26.8)">
        <path d="M184.8,100.5L185,100.1L239.5,26.8L223.4,26.8L172.2,83.3L171.9,82.9L152.9,56.4L128,56.4L171.1,116.7C171.6,117.4 172.6,117.4 173.1,116.7L184.8,100.5Z" style="fill:rgb(0,200,81);fill-rule:nonzero;"/>
    </g>
    <g transform="matrix(1,0,0,1,-127.2,-26.8)">
        <path d="M205.8,149.8L207.7,152.5L208.7,153.8L213.4,160.4C213.6,160.2 213.8,160 214.1,159.8L215.9,158.4C216.3,158.1 216.8,157.8 217.2,157.6L213,151.7L212.2,150.6L210.9,148.8L184.5,111.5C184.4,111.3 184.2,111.2 184,111.2C183.8,111.2 183.6,111.3 183.5,111.5L181.4,114.5C181.2,114.7 181.2,115 181.4,115.3L205.8,149.8Z" style="fill:white;fill-rule:nonzero;"/>
        <path d="M230.4,176.6L227.5,165L224.4,152.8C224.3,152.3 224.1,151.9 223.8,151.5L189.9,103.7C189.8,103.5 189.6,103.4 189.4,103.4C189.2,103.4 189,103.5 188.9,103.7L186.3,107.3L220.9,156.2C221.4,156.1 221.8,156 222.3,155.9L222.5,155.9L222.6,156.1L223.5,159.8L225.1,166.1L225.1,166.3L224.9,166.4C223.3,167.3 221.7,168.5 220.2,170.1L220.1,170.2L219.9,170.1L213,166.7L209.9,165.1L209.7,165L209.8,164.8C210.1,164.4 210.4,163.9 210.7,163.5L178.6,118L175.6,122.2C175.4,122.4 175.4,122.7 175.6,123L205.6,165.4C206,165.9 206.5,166.3 207,166.6L229.1,177.7C229.2,177.8 229.4,177.8 229.5,177.8C229.8,177.8 230.1,177.7 230.2,177.4C230.4,177.1 230.4,176.9 230.4,176.6Z" style="fill:white;fill-rule:nonzero;"/>
    </g>
    <g transform="matrix(1,0,0,1,-127.2,-26.8)">
        <path d="M168.1,123.1L156.3,106.7C156.2,106.5 155.9,106.4 155.7,106.4C155.5,106.4 155.2,106.5 155.1,106.7L138.1,129.7C137.7,141.7 133.9,153.2 127.2,163.1L127.7,163.4L146.1,138.5C145.6,138 145.3,137.3 145.3,136.5C145.3,134.8 146.7,133.5 148.3,133.5C150,133.5 151.3,134.9 151.3,136.5C151.3,138.2 149.9,139.5 148.3,139.5C148,139.5 147.7,139.4 147.4,139.3L129,164.3L129.5,164.6C131,162.5 132.6,160.6 134.2,158.8C136.7,156 139.3,153.6 141.9,151.7C145.8,148.7 150,146.1 154.5,144L168.2,125.6C168.6,124.9 168.6,123.8 168.1,123.1Z" style="fill:white;fill-rule:nonzero;"/>
    </g>
</svg>
