<?xml version="1.0" encoding="UTF-8" standalone="no"?><!DOCTYPE svg PUBLIC "-//W3C//DTD SVG 1.1//EN" "http://www.w3.org/Graphics/SVG/1.1/DTD/svg11.dtd"><svg width="100%" height="100%" viewBox="0 0 236 64" version="1.1" xmlns="http://www.w3.org/2000/svg" xmlns:xlink="http://www.w3.org/1999/xlink" xml:space="preserve" xmlns:serif="http://www.serif.com/" style="fill-rule:evenodd;clip-rule:evenodd;stroke-linejoin:round;stroke-miterlimit:2;"><path d="M294.225,43.5c3.825,0 6.825,1.2 8.925,3.6c2.1,2.4 3.15,5.775 3.15,9.975l0,40.425l16.575,0l0,-41.625c0,-8.4 -2.325,-15.225 -6.9,-20.175c-4.575,-4.95 -10.8,-7.5 -18.45,-7.5c-8.85,0 -15.525,3.225 -19.95,9.6l-0.525,0.75l-0.45,-0.75c-3.9,-6.375 -9.975,-9.6 -18.15,-9.6c-8.325,0 -14.625,3 -18.6,8.925l-1.05,1.575l0,-8.625l-16.575,0l0,67.5l16.575,0l0,-38.025c0,-5.175 1.2,-9.15 3.675,-11.925c2.4,-2.775 5.775,-4.2 9.825,-4.2c3.825,0 6.825,1.2 8.925,3.6c2.1,2.4 3.15,5.775 3.15,9.975l0,40.425l16.575,0l0,-37.875c0,-5.175 1.2,-9.15 3.525,-11.925c2.25,-2.7 5.55,-4.125 9.75,-4.125Z" style="fill:#5484c8;fill-rule:nonzero;"/><path d="M351.225,3.15c-2.025,-2.1 -4.5,-3.15 -7.35,-3.15c-2.775,0 -5.175,1.05 -7.2,3.15c-2.025,2.1 -3.075,4.5 -3.075,7.275c0,2.775 1.05,5.175 3.075,7.2c2.025,2.025 4.425,3.075 7.2,3.075c2.85,0 5.325,-1.05 7.35,-3.075c2.025,-2.025 3.075,-4.425 3.075,-7.2c0,-2.7 -1.05,-5.175 -3.075,-7.275Z" style="fill:#5484c8;fill-rule:nonzero;"/><rect x="335.625" y="30.075" width="16.575" height="67.5" style="fill:#5484c8;"/><path d="M447.975,98.025l24.75,-67.95l-17.7,0l-15.525,47.25l-0.6,-1.5l-17.775,-45.75l-33.825,0l0,-1.275c0,-7.65 3.825,-11.775 11.4,-12.225c0.6,-0.15 1.2,-0.225 1.875,-0.225l5.025,0l0,-15.6l-3.15,0c-10.5,-0.6 -18.525,1.5 -23.775,6.45c-5.25,4.875 -7.95,12.225 -7.95,21.675l0,1.275l-13.125,0l0,15.9l13.125,0l0,51.6l16.575,0l0,-51.675l22.425,0l21.15,49.95l-0.075,0.225c-1.65,4.725 -3.975,8.25 -6.825,10.425c-2.775,2.1 -6.525,3.15 -11.1,3.15l0,15.375c8.325,0.375 15.45,-1.65 21.075,-5.85c5.775,-4.5 10.5,-11.55 14.025,-21.225Z" style="fill:#5484c8;fill-rule:nonzero;"/><path d="M208.35,97.65l0.15,-67.5l-16.575,0l0,9.15l-0.975,-1.275c-5.175,-6.525 -12.525,-9.825 -21.9,-9.825c-9,0 -16.725,3.45 -23.1,10.275c-6.45,6.825 -9.675,15.375 -9.675,25.35c0,9.975 3.225,18.525 9.6,25.35c6.375,6.825 14.175,10.35 23.1,10.35c9.45,0 16.8,-3.3 21.975,-9.75l1.05,-1.275l0,9.15l16.35,0Zm-21.825,-19.8c-3.825,3.825 -8.925,5.925 -14.25,5.925c-5.475,0 -10.5,-2.1 -14.325,-5.925c-3.825,-3.825 -5.925,-8.925 -5.925,-14.325c0,-11.175 9.075,-20.175 20.25,-20.175c5.475,0 10.5,2.1 14.325,5.925c3.825,3.825 5.925,8.925 5.925,14.325c-0.075,5.325 -2.175,10.425 -6,14.25Z" style="fill:#5484c8;fill-rule:nonzero;"/><path d="M112.8,62.925l0.15,-0.3l40.875,-54.975l-12.075,0l-38.4,42.375l-0.225,-0.3l-14.25,-19.875l-18.675,0l32.325,45.225c0.375,0.525 1.125,0.525 1.5,0l8.775,-12.15Z" style="fill:#41b42e;fill-rule:nonzero;"/><g><path d="M128.55,99.9l1.425,2.025l0.75,0.975l3.525,4.95c0.15,-0.15 0.3,-0.3 0.525,-0.45l1.35,-1.05c0.3,-0.225 0.675,-0.45 0.975,-0.6l-3.15,-4.425l-0.6,-0.825l-0.975,-1.35l-19.8,-27.975c-0.075,-0.15 -0.225,-0.225 -0.375,-0.225c-0.15,0 -0.3,0.075 -0.375,0.225l-1.575,2.25c-0.15,0.15 -0.15,0.375 0,0.6l18.3,25.875Z" style="fill:#5484c8;fill-rule:nonzero;"/><path d="M147,120l-2.175,-8.7l-2.325,-9.15c-0.075,-0.375 -0.225,-0.675 -0.45,-0.975l-25.425,-35.85c-0.075,-0.15 -0.225,-0.225 -0.375,-0.225c-0.15,0 -0.3,0.075 -0.375,0.225l-1.95,2.7l25.95,36.675c0.375,-0.075 0.675,-0.15 1.05,-0.225l0.15,0l0.075,0.15l0.675,2.775l1.2,4.725l0,0.15l-0.15,0.075c-1.2,0.675 -2.4,1.575 -3.525,2.775l-0.075,0.075l-0.15,-0.075l-5.175,-2.55l-2.325,-1.2l-0.15,-0.075l0.075,-0.15c0.225,-0.3 0.45,-0.675 0.675,-0.975l-24.075,-34.125l-2.25,3.15c-0.15,0.15 -0.15,0.375 0,0.6l22.5,31.8c0.3,0.375 0.675,0.675 1.05,0.9l16.575,8.325c0.075,0.075 0.225,0.075 0.3,0.075c0.225,0 0.45,-0.075 0.525,-0.3c0.15,-0.225 0.15,-0.375 0.15,-0.6Z" style="fill:#5484c8;fill-rule:nonzero;"/></g><path d="M100.275,79.875l-8.85,-12.3c-0.075,-0.15 -0.3,-0.225 -0.45,-0.225c-0.15,0 -0.375,0.075 -0.45,0.225l-12.75,17.25c-0.3,9 -3.15,17.625 -8.175,25.05l0.375,0.225l13.8,-18.675c-0.375,-0.375 -0.6,-0.9 -0.6,-1.5c0,-1.275 1.05,-2.25 2.25,-2.25c1.275,0 2.25,1.05 2.25,2.25c0,1.275 -1.05,2.25 -2.25,2.25c-0.225,0 -0.45,-0.075 -0.675,-0.15l-13.8,18.75l0.375,0.225c1.125,-1.575 2.325,-3 3.525,-4.35c1.875,-2.1 3.825,-3.9 5.775,-5.325c2.925,-2.25 6.075,-4.2 9.45,-5.775l10.275,-13.8c0.3,-0.525 0.3,-1.35 -0.075,-1.875Z" style="fill:#5484c8;fill-rule:nonzero;"/><path d="M50.775,79.95c-3.45,3.075 -7.95,4.65 -13.5,4.65c-10.725,0 -17.475,-4.5 -19.875,-13.35l-0.225,-0.75l51.975,0c0.375,-2.325 0.6,-4.575 0.6,-6.675c0,-10.05 -3.225,-18.6 -9.675,-25.425c-6.375,-6.75 -14.625,-10.2 -24.45,-10.2c-10.425,0 -19.05,3.45 -25.65,10.2c-6.6,6.75 -9.975,15.3 -9.975,25.5c0,10.2 3.375,18.825 10.125,25.5c6.75,6.75 15.75,10.125 26.925,10.125c11.25,0 20.175,-3.675 26.7,-10.95l-12.975,-8.625Zm-33.675,-22.725c1.05,-4.5 3.15,-8.025 6.375,-10.575c3.225,-2.475 7.275,-3.75 12.15,-3.75c4.125,0 7.875,1.2 11.1,3.525c3.225,2.325 5.4,6 6.45,10.8l0.15,0.675l-36.45,0l0.225,-0.675Z" style="fill:#5484c8;fill-rule:nonzero;"/></svg>